# Blender 3.4.1
# www.blender.org
mtllib BeachSand.mtl
o Cube
v -0.538591 0.786541 0.914616
v -0.589906 0.935962 0.589906
v -0.914616 0.786541 0.538591
v -0.589906 0.935962 -0.589906
v -0.538591 0.786541 -0.914616
v -0.914616 0.786541 -0.538591
v 0.589906 0.935962 0.589906
v 0.538591 0.786541 0.914616
v 0.914616 0.786541 0.538591
v 0.589906 0.935962 -0.589906
v 0.914616 0.786541 -0.538591
v 0.538591 0.786541 -0.914616
vn -0.0000 1.0000 -0.0000
vn -0.4324 0.7912 0.4324
vn -0.4324 0.7912 -0.4324
vn 0.4324 0.7912 0.4324
vn 0.4324 0.7912 -0.4324
vn -0.4180 0.9084 -0.0000
vn -0.0000 0.9084 -0.4180
vn 0.4180 0.9084 -0.0000
vn -0.0000 0.9084 0.4180
vt 0.592981 0.000000
vt 0.592981 0.967981
vt 0.842981 0.717981
vt 0.625000 0.032019
vt 0.625000 0.967981
vt 0.592981 0.032019
vt 0.842981 0.532019
vt 0.625000 0.217981
vt 0.625000 0.282019
vt 0.592981 0.250000
vt 0.592981 0.282019
vt 0.592981 0.217981
vt 0.657019 0.717981
vt 0.625000 0.782019
vt 0.592981 0.782019
vt 0.592981 0.750000
vt 0.592981 0.717981
vt 0.625000 0.467981
vt 0.657019 0.532019
vt 0.592981 0.500000
vt 0.592981 0.532019
vt 0.592981 0.467981
s 0
f 10/19/1 4/7/1 2/3/1 7/13/1
f 1/1/2 2/4/2 3/6/2
f 4/8/3 5/10/3 6/12/3
f 7/14/4 8/15/4 9/16/4
f 10/18/5 11/20/5 12/22/5
f 2/4/6 4/8/6 6/12/6 3/6/6
f 4/9/7 10/18/7 12/22/7 5/11/7
f 10/19/8 7/13/8 9/17/8 11/21/8
f 7/14/9 2/5/9 1/2/9 8/15/9
