# Blender 3.4.1
# www.blender.org
mtllib culdesac.mtl
o Cylinder.001
v -0.000000 -1.000006 0.000000
v 6.000476 -0.000008 -13.182346
v 6.000477 -1.000008 -14.486432
v -6.000476 -0.000005 -13.182345
v -6.000476 -1.000005 -14.486431
v -13.182073 -0.000002 -6.000477
v -14.486432 -1.000002 -6.000477
v -13.182072 -0.000002 6.000476
v -14.486431 -1.000002 6.000476
v -5.501351 -0.000005 13.281436
v -6.000477 -1.000005 14.486432
v 5.501350 -0.000008 13.281435
v 6.000476 -1.000008 14.486431
v 13.281436 -0.000011 5.501351
v 14.486432 -1.000011 6.000477
v 13.281435 -0.000011 -5.501350
v 14.486431 -1.000011 -6.000476
v 6.000477 -0.000008 -14.486432
v -6.000476 -0.000005 -14.486431
v -14.486432 -0.000002 -6.000477
v -14.486431 -0.000002 6.000476
v -6.000477 -0.000005 14.486432
v 6.000476 -0.000008 14.486431
v 14.486432 -0.000011 6.000477
v 14.486431 -0.000011 -6.000476
v -5.501351 -0.000005 13.281436
v 5.501350 -0.000008 13.281435
v 13.281436 -0.000011 5.501351
v 13.281435 -0.000011 -5.501350
v -6.000476 0.149995 -14.486431
v -14.486432 0.149998 -6.000477
v -14.486431 0.149998 6.000476
v -6.000477 0.149995 14.486432
v 6.000476 0.149992 14.486431
v 14.486432 0.149989 6.000477
v 14.486431 0.149989 -6.000476
v 6.000477 0.149992 -14.486432
v -6.000476 0.149995 -13.182345
v -13.182073 0.149998 -6.000477
v -13.182072 0.149998 6.000476
v -5.501351 0.149995 13.281436
v 5.501350 0.149992 13.281435
v 13.281436 0.149989 5.501351
v 13.281435 0.149989 -5.501350
v 6.000476 0.149992 -13.182346
vn -0.0000 -1.0000 -0.0000
vn -0.7071 -0.0000 -0.7071
vn -1.0000 -0.0000 -0.0000
vn -0.7071 -0.0000 0.7071
vn -0.0000 -0.0000 1.0000
vn 0.7071 -0.0000 0.7071
vn 1.0000 -0.0000 -0.0000
vn 0.7071 -0.0000 -0.7071
vn -0.0000 -0.0000 -1.0000
vn -0.0000 1.0000 -0.0000
vn -0.7258 -0.0000 0.6880
vn 0.6880 -0.0000 -0.7257
vt 0.783414 0.649757
vt 0.584844 0.134335
vt 0.566828 0.560045
vt 0.000000 0.000000
vt 0.000000 0.976795
vt 0.584844 0.298836
vt 0.566828 0.739470
vt 0.000000 0.854695
vt 0.488397 0.976795
vt 0.701164 0.415156
vt 0.693701 0.866343
vt 0.000000 0.732596
vt 0.865665 0.415156
vt 0.873127 0.866343
vt 0.000000 0.610497
vt 0.981984 0.298836
vt 1.000000 0.739470
vt 0.000000 0.488397
vt 0.981984 0.134335
vt 1.000000 0.560045
vt 0.000000 0.366298
vt 0.865665 0.018016
vt 0.873127 0.433172
vt 0.000000 0.244199
vt 0.701164 0.018016
vt 0.693702 0.433172
vt 0.000000 0.122099
vt 0.000000 0.854695
vt 0.488397 0.000000
vt 0.566829 0.126873
vt 0.566829 0.306299
vt 0.488397 0.854695
vt 0.693702 0.433172
vt 0.488397 0.732596
vt 0.488397 0.610497
vt 0.873127 0.433172
vt 0.488397 0.488397
vt 0.488397 0.366298
vt 0.488397 0.244199
vt 0.488397 0.122099
vt 0.981984 0.298836
vt 0.981984 0.134335
vt 0.865665 0.018016
vt 0.701164 0.018016
vt 0.566829 0.306299
vt 0.488397 0.854695
vt 0.693702 0.433172
vt 0.488397 0.732596
vt 0.488397 0.610497
vt 0.873127 0.433172
vt 1.000000 0.306299
vt 0.488397 0.488397
vt 1.000000 0.126873
vt 0.488397 0.366298
vt 0.873127 0.000000
vt 0.488397 0.244199
vt 0.693702 0.000000
vt 0.488397 0.122099
vt 0.488397 0.000000
vt 0.566829 0.126873
vt 0.584844 0.298836
vt 0.701164 0.415156
vt 0.865665 0.415156
vt 0.981984 0.298836
vt 0.981984 0.134335
vt 0.865665 0.018016
vt 0.701164 0.018016
vt 0.584844 0.134335
s 0
usemtl Material.042
f 1/1/1 5/7/1 3/3/1
f 1/1/1 7/11/1 5/7/1
f 19/32/2 5/8/2 7/12/2 20/34/2
f 1/1/1 9/14/1 7/11/1
f 20/34/3 7/12/3 9/15/3 21/35/3
f 1/1/1 11/17/1 9/14/1
f 21/35/4 9/15/4 11/18/4 22/37/4
f 1/1/1 13/20/1 11/17/1
f 22/37/5 11/18/5 13/21/5 23/38/5
f 1/1/1 15/23/1 13/20/1
f 23/38/6 13/21/6 15/24/6 24/39/6
f 1/1/1 17/26/1 15/23/1
f 24/39/7 15/24/7 17/27/7 25/40/7
f 1/1/1 3/3/1 17/26/1
f 25/40/8 17/27/8 3/4/8 18/29/8
f 12/19/1 14/22/1 28/43/1 27/42/1
f 18/28/9 3/5/9 5/9/9 19/32/9
f 16/25/3 14/22/3 43/66/3 44/67/3
f 25/40/8 18/29/8 37/59/8 36/58/8
f 14/22/2 12/19/2 42/65/2 43/66/2
f 23/38/6 24/39/6 35/56/6 34/54/6
f 21/35/4 22/37/4 33/52/4 32/49/4
f 12/19/9 10/16/9 41/64/9 42/65/9
f 8/13/1 10/16/1 26/41/1
f 14/22/1 16/25/1 29/44/1 28/43/1
f 10/16/1 12/19/1 27/42/1 26/41/1
f 16/25/1 2/2/1 29/44/1
f 39/62/10 38/61/10 30/45/10 31/47/10
f 41/64/10 40/63/10 32/50/10 33/51/10
f 42/65/10 41/64/10 33/51/10 34/53/10
f 43/66/10 42/65/10 34/53/10 35/55/10
f 44/67/10 43/66/10 35/55/10 36/57/10
f 45/68/10 44/67/10 36/57/10 37/60/10
f 2/2/11 16/25/11 44/67/11 45/68/11
f 4/6/7 19/31/7 30/45/7 38/61/7
f 22/37/5 23/38/5 34/54/5 33/52/5
f 6/10/6 4/6/6 38/61/6 39/62/6
f 24/39/7 25/40/7 36/58/7 35/56/7
f 18/30/3 2/2/3 45/68/3 37/60/3
f 20/33/5 6/10/5 39/62/5 31/47/5
f 10/16/12 8/13/12 40/63/12 41/64/12
f 8/13/9 21/36/9 32/50/9 40/63/9
f 19/32/2 20/34/2 31/48/2 30/46/2
usemtl Material.043
f 4/6/10 2/2/10 18/30/10 19/31/10
f 8/13/10 6/10/10 20/33/10 21/36/10
f 2/2/10 4/6/10 6/10/10 8/13/10 26/41/10 27/42/10 28/43/10 29/44/10
