# Blender 3.4.1
# www.blender.org
mtllib icemchn.mtl
o Cube.013
v -0.550238 -0.000000 1.000000
v -0.550238 1.350000 1.000000
v -0.550238 -0.000000 -1.000000
v -0.550238 1.350000 -1.000000
v 0.550238 -0.000000 1.000000
v 0.550238 -0.000000 -1.000000
v 0.550238 0.550000 1.000000
v -0.049762 1.350000 1.000000
v -0.049762 1.350000 -1.000000
v 0.550238 0.550000 -1.000000
vn -1.0000 -0.0000 -0.0000
vn -0.0000 -0.0000 1.0000
vn -0.0000 -0.0000 -1.0000
vn -0.0000 -1.0000 -0.0000
vn 1.0000 -0.0000 -0.0000
vn 0.8000 0.6000 -0.0000
vn -0.0000 1.0000 -0.0000
vt 0.375000 0.000000
vt 0.375000 1.000000
vt 0.125000 0.750000
vt 0.625000 0.000000
vt 0.625000 1.000000
vt 0.875000 0.750000
vt 0.375000 0.250000
vt 0.125000 0.500000
vt 0.625000 0.250000
vt 0.875000 0.500000
vt 0.375000 0.750000
vt 0.375000 0.500000
vt 0.527604 0.750000
vt 0.625000 0.920361
vt 0.795361 0.750000
vt 0.625000 0.329639
vt 0.795361 0.500000
vt 0.527604 0.500000
s 0
usemtl Material.018
f 1/1/1 2/4/1 4/9/1 3/7/1
f 5/11/2 7/13/2 8/14/2 2/5/2 1/2/2
f 3/7/3 4/9/3 9/16/3 10/18/3 6/12/3
f 3/8/4 6/12/4 5/11/4 1/3/4
f 6/12/5 10/18/5 7/13/5 5/11/5
f 9/17/6 8/15/6 7/13/6 10/18/6
f 9/17/7 4/10/7 2/6/7 8/15/7
