# Blender 3.4.1
# www.blender.org
mtllib palm1.mtl
o Cylinder.026
v 0.000000 0.000000 0.000000
v 0.000000 7.000000 0.000000
v 0.000000 0.000000 -0.500000
v 0.000000 6.000000 -0.350000
v 0.353553 0.000000 -0.353553
v 0.247487 6.000000 -0.247487
v 0.500000 0.000000 0.000000
v 0.350000 6.000000 0.000000
v 0.353553 0.000000 0.353553
v 0.247487 6.000000 0.247487
v 0.000000 0.000000 0.500000
v 0.000000 6.000000 0.350000
v -0.353553 0.000000 0.353553
v -0.247487 6.000000 0.247487
v -0.500000 0.000000 0.000000
v -0.350000 6.000000 0.000000
v -0.353553 0.000000 -0.353553
v -0.247487 6.000000 -0.247487
v 0.000000 1.200000 -0.470000
v 0.000000 2.400000 -0.440000
v 0.000000 3.600000 -0.410000
v 0.000000 4.800000 -0.380000
v 0.268701 4.800000 -0.268701
v 0.289914 3.600000 -0.289914
v 0.311127 2.400000 -0.311127
v 0.332340 1.200000 -0.332340
v 0.380000 4.800000 0.000000
v 0.410000 3.600000 0.000000
v 0.440000 2.400000 0.000000
v 0.470000 1.200000 0.000000
v 0.268701 4.800000 0.268701
v 0.289914 3.600000 0.289914
v 0.311127 2.400000 0.311127
v 0.332340 1.200000 0.332340
v 0.000000 4.800000 0.380000
v 0.000000 3.600000 0.410000
v 0.000000 2.400000 0.440000
v 0.000000 1.200000 0.470000
v -0.268701 4.800000 0.268701
v -0.289914 3.600000 0.289914
v -0.311127 2.400000 0.311127
v -0.332340 1.200000 0.332340
v -0.380000 4.800000 0.000000
v -0.410000 3.600000 0.000000
v -0.440000 2.400000 0.000000
v -0.470000 1.200000 0.000000
v -0.268701 4.800000 -0.268701
v -0.289914 3.600000 -0.289914
v -0.311127 2.400000 -0.311127
v -0.332340 1.200000 -0.332340
v 0.346482 6.000000 -0.346482
v 0.000000 6.000000 -0.490000
v 0.000000 4.800000 -0.532000
v 0.490000 6.000000 -0.000000
v 0.346482 6.000000 0.346482
v 0.000000 6.000000 0.490000
v -0.346482 6.000000 0.346482
v -0.490000 6.000000 -0.000000
v -0.346482 6.000000 -0.346482
v 0.376181 4.800000 -0.376181
v 0.532000 4.800000 -0.000000
v 0.376181 4.800000 0.376181
v 0.000000 4.800000 0.532000
v -0.376181 4.800000 0.376181
v -0.532000 4.800000 -0.000000
v -0.376181 4.800000 -0.376181
v -0.937994 6.802351 0.550252
v -0.937995 6.802351 -0.550256
v -2.593131 6.176238 0.711461
v -2.593132 6.176238 -0.711462
v -3.508341 5.015977 0.000000
v -0.000001 7.000000 -0.000003
v -1.554895 6.524386 0.705251
v -1.554896 6.524386 -0.705254
v -0.274173 6.802351 1.052347
v -1.052351 6.802351 0.274171
v -1.330540 6.176238 2.336698
v -2.336700 6.176238 1.330541
v -2.480768 5.015976 2.480770
v -0.000001 7.000000 -0.000004
v -0.600787 6.524386 1.598162
v -1.598166 6.524386 0.600786
v 0.550256 6.802351 0.937983
v -0.550253 6.802351 0.937984
v 0.711463 6.176239 2.593120
v -0.711460 6.176239 2.593121
v 0.000002 5.015977 3.508329
v 0.000001 7.000000 -0.000010
v 0.705254 6.524387 1.554884
v -0.705251 6.524387 1.554884
v 0.937998 6.802351 -0.550263
v 0.937999 6.802351 0.550245
v 2.593135 6.176239 -0.711472
v 2.593136 6.176239 0.711452
v 3.508344 5.015977 -0.000011
v 0.000004 7.000000 -0.000008
v 1.554899 6.524387 -0.705262
v 1.554899 6.524387 0.705243
v 1.052352 6.802351 0.274160
v 0.274175 6.802351 1.052337
v 2.336702 6.176238 1.330527
v 1.330544 6.176238 2.336687
v 2.480773 5.015976 2.480757
v 0.000002 7.000000 -0.000013
v 1.598167 6.524386 0.600774
v 0.600790 6.524386 1.598152
v 0.274175 6.802350 -1.052362
v 1.052353 6.802350 -0.274185
v 1.330542 6.176237 -2.336711
v 2.336702 6.176237 -1.330554
v 2.480772 5.015975 -2.480783
v 0.000002 6.999999 -0.000011
v 0.600790 6.524385 -1.598177
v 1.598168 6.524385 -0.600800
v -0.550252 6.802351 -0.938000
v 0.550258 6.802351 -0.938000
v -0.711459 6.176238 -2.593137
v 0.711464 6.176238 -2.593138
v 0.000002 5.015976 -3.508347
v 0.000004 7.000000 -0.000006
v -0.705250 6.524386 -1.554901
v 0.705255 6.524386 -1.554901
v -1.052346 6.802351 -0.274179
v -0.274170 6.802351 -1.052357
v -2.336696 6.176238 -1.330546
v -1.330539 6.176238 -2.336705
v -2.480768 5.015977 -2.480776
v 0.000004 7.000000 -0.000006
v -1.598161 6.524386 -0.600792
v -0.600785 6.524386 -1.598171
vn 0.3641 0.3077 -0.8791
vn -0.0000 1.0000 -0.0000
vn 0.8791 0.3077 -0.3641
vn 0.8791 0.3077 0.3641
vn -0.0000 -1.0000 -0.0000
vn 0.3641 0.3077 0.8791
vn -0.3641 0.3077 0.8791
vn -0.8791 0.3077 0.3641
vn -0.8791 0.3077 -0.3641
vn -0.3641 0.3077 -0.8791
vn -0.3826 0.0231 -0.9236
vn -0.9236 0.0231 -0.3826
vn -0.9236 0.0231 0.3826
vn -0.3826 0.0231 0.9236
vn 0.3826 0.0231 0.9236
vn 0.9236 0.0231 0.3826
vn 0.9236 0.0231 -0.3826
vn 0.3826 0.0231 -0.9236
vn 0.3825 0.0323 -0.9234
vn 0.9234 0.0323 -0.3825
vn 0.9234 0.0323 0.3825
vn 0.3825 0.0323 0.9234
vn -0.3825 0.0323 0.9234
vn -0.9234 0.0323 0.3825
vn -0.9234 0.0323 -0.3825
vn -0.3825 0.0323 -0.9234
vn -0.3179 0.9481 -0.0000
vn -0.7851 0.6193 -0.0000
vn -0.4108 0.9117 -0.0000
vn -0.2062 0.9785 -0.0000
vn -0.2248 0.9481 0.2248
vn -0.5552 0.6193 0.5552
vn -0.2905 0.9117 0.2905
vn -0.1458 0.9785 0.1458
vn -0.0000 0.9481 0.3179
vn -0.0000 0.6193 0.7851
vn -0.0000 0.9117 0.4108
vn -0.0000 0.9785 0.2062
vn 0.3179 0.9481 -0.0000
vn 0.7851 0.6193 -0.0000
vn 0.4108 0.9117 -0.0000
vn 0.2062 0.9785 -0.0000
vn 0.2248 0.9481 0.2248
vn 0.5552 0.6193 0.5552
vn 0.2905 0.9117 0.2905
vn 0.1458 0.9785 0.1458
vn 0.2248 0.9481 -0.2248
vn 0.5552 0.6193 -0.5552
vn 0.2905 0.9117 -0.2905
vn 0.1458 0.9785 -0.1458
vn -0.0000 0.9481 -0.3179
vn -0.0000 0.6193 -0.7851
vn -0.0000 0.9117 -0.4108
vn -0.0000 0.9785 -0.2062
vn -0.2248 0.9481 -0.2248
vn -0.5552 0.6193 -0.5552
vn -0.2905 0.9117 -0.2905
vn -0.1458 0.9785 -0.1458
vt 0.250000 0.250000
vt 0.000000 0.500000
vt 1.000000 0.500000
vt 0.250000 0.490000
vt 0.875000 0.500000
vt 0.419706 0.419706
vt 0.750000 0.500000
vt 0.490000 0.250000
vt 0.625000 0.500000
vt 0.419706 0.080294
vt 0.500000 0.500000
vt 0.250000 0.010000
vt 0.375000 0.500000
vt 0.080294 0.080294
vt 0.250000 0.500000
vt 0.010000 0.250000
vt 0.125000 0.500000
vt 0.080294 0.419706
vt 0.000000 0.600000
vt 1.000000 0.600000
vt 0.000000 0.700000
vt 1.000000 0.700000
vt 0.000000 0.800000
vt 1.000000 0.800000
vt 0.000000 0.900000
vt 1.000000 0.900000
vt 0.875000 0.900000
vt 0.875000 0.800000
vt 0.875000 0.700000
vt 0.875000 0.600000
vt 0.750000 0.900000
vt 0.750000 0.800000
vt 0.750000 0.700000
vt 0.750000 0.600000
vt 0.625000 0.900000
vt 0.625000 0.800000
vt 0.625000 0.700000
vt 0.625000 0.600000
vt 0.500000 0.900000
vt 0.500000 0.800000
vt 0.500000 0.700000
vt 0.500000 0.600000
vt 0.375000 0.900000
vt 0.375000 0.800000
vt 0.375000 0.700000
vt 0.375000 0.600000
vt 0.250000 0.900000
vt 0.250000 0.800000
vt 0.250000 0.700000
vt 0.250000 0.600000
vt 0.125000 0.900000
vt 0.125000 0.800000
vt 0.125000 0.700000
vt 0.125000 0.600000
vt 0.875000 1.000000
vt 0.419706 0.419706
vt 1.000000 1.000000
vt 0.000000 1.000000
vt 0.250000 0.490000
vt 1.000000 0.900000
vt 0.000000 0.900000
vt 0.750000 1.000000
vt 0.490000 0.250000
vt 0.419706 0.080294
vt 0.625000 1.000000
vt 0.500000 1.000000
vt 0.250000 0.010000
vt 0.375000 1.000000
vt 0.080294 0.080294
vt 0.010000 0.250000
vt 0.250000 1.000000
vt 0.125000 1.000000
vt 0.080294 0.419706
vt 0.875000 0.900000
vt 0.750000 0.900000
vt 0.625000 0.900000
vt 0.500000 0.900000
vt 0.375000 0.900000
vt 0.250000 0.900000
vt 0.125000 0.900000
vt 0.151111 0.885730
vt 0.020348 0.886471
vt 0.169072 0.675110
vt 0.000000 0.676069
vt 0.083540 0.500000
vt 0.086375 1.000000
vt 0.169072 0.805228
vt 0.001476 0.806178
vt 0.658325 0.385730
vt 0.527563 0.386471
vt 0.676286 0.175109
vt 0.507215 0.176068
vt 0.590755 0.000000
vt 0.593590 0.500000
vt 0.676286 0.305228
vt 0.508690 0.306178
vt 0.358491 0.613529
vt 0.489254 0.614270
vt 0.338143 0.823932
vt 0.507215 0.824890
vt 0.421683 1.000000
vt 0.424518 0.500000
vt 0.339619 0.693822
vt 0.507215 0.694772
vt 0.489254 0.385730
vt 0.358491 0.386471
vt 0.507215 0.175109
vt 0.338143 0.176068
vt 0.421683 0.000000
vt 0.424518 0.500000
vt 0.507215 0.305228
vt 0.339619 0.306178
vt 0.320182 0.385730
vt 0.189420 0.386471
vt 0.338143 0.175110
vt 0.169071 0.176068
vt 0.252612 0.000000
vt 0.255447 0.500000
vt 0.338143 0.305228
vt 0.170547 0.306178
vt 0.696634 0.113529
vt 0.827397 0.114270
vt 0.676286 0.323932
vt 0.845358 0.324891
vt 0.759826 0.500000
vt 0.762661 0.000000
vt 0.677762 0.193822
vt 0.845358 0.194772
vt 0.151111 0.385730
vt 0.020348 0.386471
vt 0.169072 0.175110
vt 0.000000 0.176068
vt 0.083540 0.000000
vt 0.086375 0.500000
vt 0.169072 0.305228
vt 0.001476 0.306178
vt 0.320182 0.885730
vt 0.189420 0.886471
vt 0.338143 0.675110
vt 0.169071 0.676068
vt 0.252612 0.500000
vt 0.255447 1.000000
vt 0.338143 0.805228
vt 0.170547 0.806178
s 0
usemtl Material.001
f 2/1/1 6/6/1 4/4/1
f 14/14/2 16/16/2 58/70/2 57/69/2
f 2/1/3 8/8/3 6/6/3
f 8/8/2 10/10/2 55/64/2 54/63/2
f 2/1/4 10/10/4 8/8/4
f 22/25/5 47/51/5 66/80/5 53/61/5
f 2/1/6 12/12/6 10/10/6
f 23/27/5 22/26/5 53/60/5 60/74/5
f 2/1/7 14/14/7 12/12/7
f 16/16/2 18/18/2 59/73/2 58/70/2
f 2/1/8 16/16/8 14/14/8
f 10/10/2 12/12/2 56/67/2 55/64/2
f 2/1/9 18/18/9 16/16/9
f 31/35/5 27/31/5 61/75/5 62/76/5
f 2/1/10 4/4/10 18/18/10
f 39/43/5 35/39/5 63/77/5 64/78/5
f 17/17/11 50/54/11 19/19/11 3/2/11
f 50/54/11 49/53/11 20/21/11 19/19/11
f 49/53/11 48/52/11 21/23/11 20/21/11
f 48/52/11 47/51/11 22/25/11 21/23/11
f 15/15/12 46/50/12 50/54/12 17/17/12
f 46/50/12 45/49/12 49/53/12 50/54/12
f 45/49/12 44/48/12 48/52/12 49/53/12
f 44/48/12 43/47/12 47/51/12 48/52/12
f 13/13/13 42/46/13 46/50/13 15/15/13
f 42/46/13 41/45/13 45/49/13 46/50/13
f 41/45/13 40/44/13 44/48/13 45/49/13
f 40/44/13 39/43/13 43/47/13 44/48/13
f 11/11/14 38/42/14 42/46/14 13/13/14
f 38/42/14 37/41/14 41/45/14 42/46/14
f 37/41/14 36/40/14 40/44/14 41/45/14
f 36/40/14 35/39/14 39/43/14 40/44/14
f 9/9/15 34/38/15 38/42/15 11/11/15
f 34/38/15 33/37/15 37/41/15 38/42/15
f 33/37/15 32/36/15 36/40/15 37/41/15
f 32/36/15 31/35/15 35/39/15 36/40/15
f 7/7/16 30/34/16 34/38/16 9/9/16
f 30/34/16 29/33/16 33/37/16 34/38/16
f 29/33/16 28/32/16 32/36/16 33/37/16
f 28/32/16 27/31/16 31/35/16 32/36/16
f 5/5/17 26/30/17 30/34/17 7/7/17
f 26/30/17 25/29/17 29/33/17 30/34/17
f 25/29/17 24/28/17 28/32/17 29/33/17
f 24/28/17 23/27/17 27/31/17 28/32/17
f 3/3/18 19/20/18 26/30/18 5/5/18
f 19/20/18 20/22/18 25/29/18 26/30/18
f 20/22/18 21/24/18 24/28/18 25/29/18
f 21/24/18 22/26/18 23/27/18 24/28/18
f 53/60/19 52/57/19 51/55/19 60/74/19
f 60/74/20 51/55/20 54/62/20 61/75/20
f 61/75/21 54/62/21 55/65/21 62/76/21
f 62/76/22 55/65/22 56/66/22 63/77/22
f 63/77/23 56/66/23 57/68/23 64/78/23
f 64/78/24 57/68/24 58/71/24 65/79/24
f 65/79/25 58/71/25 59/72/25 66/80/25
f 66/80/26 59/72/26 52/58/26 53/61/26
f 43/47/5 39/43/5 64/78/5 65/79/5
f 18/18/2 4/4/2 52/59/2 59/73/2
f 35/39/5 31/35/5 62/76/5 63/77/5
f 27/31/5 23/27/5 60/74/5 61/75/5
f 6/6/2 8/8/2 54/63/2 51/56/2
f 12/12/2 14/14/2 57/69/2 56/67/2
f 47/51/5 43/47/5 65/79/5 66/80/5
f 4/4/2 6/6/2 51/56/2 52/59/2
usemtl Material.002
f 74/88/27 70/84/27 69/83/27 73/87/27
f 71/85/28 69/83/28 70/84/28
f 73/87/29 67/81/29 68/82/29 74/88/29
f 72/86/30 68/82/30 67/81/30
f 82/96/31 78/92/31 77/91/31 81/95/31
f 79/93/32 77/91/32 78/92/32
f 81/95/33 75/89/33 76/90/33 82/96/33
f 80/94/34 76/90/34 75/89/34
f 90/104/35 86/100/35 85/99/35 89/103/35
f 87/101/36 85/99/36 86/100/36
f 89/103/37 83/97/37 84/98/37 90/104/37
f 88/102/38 84/98/38 83/97/38
f 98/112/39 94/108/39 93/107/39 97/111/39
f 95/109/40 93/107/40 94/108/40
f 97/111/41 91/105/41 92/106/41 98/112/41
f 96/110/42 92/106/42 91/105/42
f 106/120/43 102/116/43 101/115/43 105/119/43
f 103/117/44 101/115/44 102/116/44
f 105/119/45 99/113/45 100/114/45 106/120/45
f 104/118/46 100/114/46 99/113/46
f 114/128/47 110/124/47 109/123/47 113/127/47
f 111/125/48 109/123/48 110/124/48
f 113/127/49 107/121/49 108/122/49 114/128/49
f 112/126/50 108/122/50 107/121/50
f 122/136/51 118/132/51 117/131/51 121/135/51
f 119/133/52 117/131/52 118/132/52
f 121/135/53 115/129/53 116/130/53 122/136/53
f 120/134/54 116/130/54 115/129/54
f 130/144/55 126/140/55 125/139/55 129/143/55
f 127/141/56 125/139/56 126/140/56
f 129/143/57 123/137/57 124/138/57 130/144/57
f 128/142/58 124/138/58 123/137/58
