# Blender 3.4.1
# www.blender.org
mtllib planter.mtl
o Cube.046
v -0.250000 0.000000 0.250000
v 0.000000 0.749984 0.459619
v -0.250000 0.000000 -0.250000
v -0.459619 0.749984 0.000000
v 0.250000 0.000000 0.250000
v 0.459619 0.749984 0.000000
v 0.250000 0.000000 -0.250000
v 0.000000 0.749984 -0.459619
v 0.000000 0.749984 0.530330
v -0.530330 0.749984 0.000000
v 0.000000 0.749984 -0.530330
v 0.530330 0.749984 0.000000
v -0.237842 0.061373 0.237842
v -0.237842 0.061373 -0.237842
v 0.237842 0.061373 -0.237842
v 0.237842 0.061373 0.237842
vn -0.8751 -0.1769 0.4504
vn -0.4504 -0.1769 -0.8751
vn 0.8751 -0.1769 -0.4504
vn 0.4504 -0.1769 0.8751
vn -0.0000 -1.0000 -0.0000
vn -0.8892 0.1355 0.4370
vn -0.0000 1.0000 -0.0000
vn 0.8892 0.1355 -0.4370
vn -0.4370 0.1355 -0.8892
vn 0.4370 0.1355 0.8892
vt 0.500000 1.000000
vt 0.500000 0.000000
vt 0.750000 0.250000
vt 0.016667 0.266667
vt 0.500000 0.750000
vt 0.750000 0.500000
vt 0.016667 0.483333
vt 0.500000 0.250000
vt 0.233333 0.266667
vt 0.500000 0.500000
vt 0.233333 0.483333
vt 0.250000 1.000000
vt 0.250000 0.000000
vt 0.000000 0.250000
vt 0.250000 0.750000
vt 0.000000 0.500000
vt 0.250000 0.500000
vt 0.250000 0.250000
vt 0.016667 0.266667
vt 0.016667 0.483333
vt 0.233333 0.483333
vt 0.233333 0.266667
s 0
f 1/1/1 9/12/1 10/15/1 3/5/1
f 3/5/2 10/15/2 11/17/2 7/10/2
f 7/10/3 11/17/3 12/18/3 5/8/3
f 5/8/4 12/18/4 9/13/4 1/2/4
f 3/6/5 7/10/5 5/8/5 1/3/5
f 6/9/6 8/11/6 15/21/6 16/22/6
f 2/4/7 4/7/7 10/16/7 9/14/7
f 4/7/7 8/11/7 11/17/7 10/16/7
f 8/11/7 6/9/7 12/18/7 11/17/7
f 6/9/7 2/4/7 9/14/7 12/18/7
f 15/21/7 14/20/7 13/19/7 16/22/7
f 4/7/8 2/4/8 13/19/8 14/20/8
f 2/4/9 6/9/9 16/22/9 13/19/9
f 8/11/10 4/7/10 14/20/10 15/21/10
