# Blender 3.4.1
# www.blender.org
mtllib vndmchn1.mtl
o Cube.014
v -0.455147 0.000000 0.750000
v -0.455147 2.149584 0.750000
v -0.455147 0.000000 -0.750000
v -0.455147 2.149584 -0.750000
v 0.455147 0.000000 0.750000
v 0.455147 2.078792 0.679208
v 0.455147 0.000000 -0.750000
v 0.455147 2.078792 -0.407274
v -0.455147 0.449995 0.750000
v -0.455147 0.449995 -0.750000
v 0.455147 0.520787 -0.407274
v 0.455147 0.520787 0.679208
v 0.455147 2.149584 -0.750000
v 0.455147 2.149584 0.750000
v 0.455147 0.449995 -0.750000
v 0.455147 0.449995 0.750000
v 0.405147 2.078792 -0.407274
v 0.405147 2.078792 0.679208
v 0.405147 0.520787 -0.407274
v 0.405147 0.520787 0.679208
vn -1.0000 -0.0000 -0.0000
vn -0.0000 -0.0000 -1.0000
vn -0.0000 -0.0000 1.0000
vn -0.0000 -1.0000 -0.0000
vn -0.0000 1.0000 -0.0000
vn 1.0000 -0.0000 -0.0000
vt 0.750000 0.250000
vt 0.500000 0.000000
vt 0.500000 1.000000
vt 0.250000 1.000000
vt 0.250000 0.000000
vt 0.000000 0.250000
vt 0.750000 0.500000
vt 0.500000 0.750000
vt 0.250000 0.750000
vt 0.000000 0.500000
vt 0.500000 0.250000
vt 0.258233 0.261799
vt 0.500000 0.500000
vt 0.258233 0.488201
vt 0.447665 0.000000
vt 0.447665 1.000000
vt 0.447665 0.750000
vt 0.439432 0.488201
vt 0.439432 0.261799
vt 0.250000 0.500000
vt 0.250000 0.250000
vt 0.447665 0.500000
vt 0.447665 0.250000
vt 0.258233 0.488201
vt 0.258233 0.261799
vt 0.439432 0.488201
vt 0.439432 0.261799
s 0
usemtl Material.020
f 9/16/1 2/4/1 4/9/1 10/17/1
f 10/17/2 4/9/2 13/20/2 15/22/2
f 6/12/2 12/19/2 20/27/2 18/25/2
f 16/23/3 14/21/3 2/5/3 9/15/3
f 3/7/4 7/13/4 5/11/4 1/1/4
f 13/20/5 4/10/5 2/6/5 14/21/5
f 5/11/3 16/23/3 9/15/3 1/2/3
f 7/13/6 15/22/6 16/23/6 5/11/6
f 3/8/2 10/17/2 15/22/2 7/13/2
f 1/3/1 9/16/1 10/17/1 3/8/1
f 6/12/6 8/14/6 13/20/6 14/21/6
f 8/14/6 11/18/6 15/22/6 13/20/6
f 12/19/6 6/12/6 14/21/6 16/23/6
f 11/18/6 12/19/6 16/23/6 15/22/6
f 8/14/4 6/12/4 18/25/4 17/24/4
f 12/19/5 11/18/5 19/26/5 20/27/5
f 11/18/3 8/14/3 17/24/3 19/26/3
usemtl Material.021
f 19/26/6 17/24/6 18/25/6 20/27/6
