# Blender 3.4.1
# www.blender.org
mtllib vndmchn2.mtl
o Cube.015
v -0.567674 0.000000 0.750000
v -0.567674 2.149584 0.750000
v -0.567674 0.000000 -0.750000
v -0.567674 2.149584 -0.750000
v 0.342621 0.000000 0.750000
v 0.342621 2.149584 0.750000
v 0.342621 0.000000 -0.750000
v 0.342621 2.149584 -0.750000
v -0.567674 0.000000 -0.375000
v -0.567674 0.000000 0.000000
v -0.567674 0.000000 0.375000
v -0.567674 2.149584 0.375000
v -0.567674 2.149584 0.000000
v -0.567674 2.149584 -0.375000
v 0.394591 0.000000 0.375000
v 0.394591 0.000000 0.000000
v 0.342621 0.000000 -0.375000
v 0.342621 2.149584 -0.375000
v 0.394591 2.149584 0.000000
v 0.394591 2.149584 0.375000
v 0.342621 2.149584 -0.750000
v 0.342621 0.000000 -0.750000
v 0.342621 0.000000 -0.375000
v 0.342621 2.149584 -0.375000
v 0.567674 2.149584 0.375000
v 0.442621 2.149584 0.750000
v 0.442621 0.000000 0.750000
v 0.567674 0.000000 0.375000
v 0.567674 0.000000 0.000000
v 0.442621 0.000000 -0.375000
v 0.442621 2.149584 -0.375000
v 0.567674 2.149584 0.000000
vn -1.0000 -0.0000 -0.0000
vn -0.0000 -0.0000 -1.0000
vn -0.0000 -1.0000 -0.0000
vn -0.0000 -0.0000 1.0000
vn -0.0000 1.0000 -0.0000
vn 1.0000 -0.0000 -0.0000
vn 0.9486 -0.0000 0.3163
vn 0.9486 -0.0000 -0.3163
vt 0.500000 0.000000
vt 0.750000 0.250000
vt 0.500000 1.000000
vt 0.250000 0.000000
vt 0.000000 0.250000
vt 0.250000 1.000000
vt 0.500000 0.750000
vt 0.750000 0.500000
vt 0.250000 0.750000
vt 0.000000 0.500000
vt 0.500000 0.250000
vt 0.250000 0.250000
vt 0.500000 0.500000
vt 0.250000 0.500000
vt 0.750000 0.437500
vt 0.500000 0.812500
vt 0.750000 0.375000
vt 0.500000 0.875000
vt 0.750000 0.312500
vt 0.500000 0.937500
vt 0.000000 0.312500
vt 0.250000 0.937500
vt 0.000000 0.375000
vt 0.250000 0.875000
vt 0.000000 0.437500
vt 0.250000 0.812500
vt 0.500000 0.312500
vt 0.500000 0.375000
vt 0.500000 0.437500
vt 0.250000 0.437500
vt 0.250000 0.375000
vt 0.250000 0.312500
vt 0.250000 0.500000
vt 0.500000 0.500000
vt 0.500000 0.437500
vt 0.250000 0.437500
vt 0.250000 0.312500
vt 0.250000 0.250000
vt 0.500000 0.250000
vt 0.500000 0.312500
vt 0.500000 0.375000
vt 0.500000 0.437500
vt 0.250000 0.437500
vt 0.250000 0.375000
s 0
usemtl Material.027
f 9/16/1 14/26/1 4/9/1 3/7/1
f 3/7/2 4/9/2 8/14/2 7/13/2
f 5/11/3 15/27/3 28/40/3 27/39/3
f 5/11/4 6/12/4 2/4/4 1/1/4
f 11/19/3 15/27/3 5/11/3 1/2/3
f 20/32/5 12/21/5 2/5/5 6/12/5
f 8/14/5 4/10/5 14/25/5 18/30/5
f 18/30/5 14/25/5 13/23/5 19/31/5
f 19/31/5 13/23/5 12/21/5 20/32/5
f 3/8/3 7/13/3 17/29/3 9/15/3
f 9/15/3 17/29/3 16/28/3 10/17/3
f 10/17/3 16/28/3 15/27/3 11/19/3
f 17/29/5 7/13/5 22/34/5 23/35/5
f 6/12/4 5/11/4 27/39/4 26/38/4
f 16/28/3 17/29/3 30/42/3 29/41/3
f 1/3/1 2/6/1 12/22/1 11/20/1
f 11/20/1 12/22/1 13/24/1 10/18/1
f 10/18/1 13/24/1 14/26/1 9/16/1
f 22/34/6 21/33/6 24/36/6 23/35/6
f 8/14/5 18/30/5 24/36/5 21/33/5
f 18/30/5 17/29/5 23/35/5 24/36/5
f 7/13/5 8/14/5 21/33/5 22/34/5
f 19/31/5 20/32/5 25/37/5 32/44/5
f 17/29/2 18/30/2 31/43/2 30/42/2
f 20/32/5 6/12/5 26/38/5 25/37/5
f 15/27/3 16/28/3 29/41/3 28/40/3
f 18/30/5 19/31/5 32/44/5 31/43/5
usemtl Material.028
f 28/40/7 25/37/7 26/38/7 27/39/7
f 30/42/8 31/43/8 32/44/8 29/41/8
f 29/41/6 32/44/6 25/37/6 28/40/6
